<svg xmlns="http://www.w3.org/2000/svg" viewBox="0 0 740 232" fill="none">
<defs><linearGradient id="ground" x1="370" y1="0" x2="370" y2="232" gradientUnits="userSpaceOnUse"><stop stop-color="#1d2130"/><stop offset="1" stop-color="#101219"/></linearGradient><radialGradient id="glow"><stop stop-color="#5b7cfa" stop-opacity=".18"/><stop offset="1" stop-color="#5b7cfa" stop-opacity="0"/></radialGradient><linearGradient id="panel" x1="0" y1="0" x2="1" y2="1"><stop stop-color="#303956"/><stop offset="1" stop-color="#171b29"/></linearGradient><linearGradient id="fade" x1="370" y1="175" x2="370" y2="232" gradientUnits="userSpaceOnUse"><stop stop-color="#101219" stop-opacity="0"/><stop offset="1" stop-color="#101219"/></linearGradient></defs>
<path fill="url(#ground)" d="M0 0h740v232H0z"/><ellipse cx="375" cy="106" rx="270" ry="170" fill="url(#glow)"/>
<g transform="translate(153 68) rotate(-9 90 56)" opacity=".55"><rect width="179" height="111" rx="12" fill="url(#panel)" stroke="#64769d" stroke-opacity=".3"/><path d="M16 27h76M16 44h136M16 57h95M16 70h112" stroke="#7490ff" stroke-opacity=".26" stroke-width="4" stroke-linecap="round"/><rect x="15" y="87" width="63" height="8" rx="4" fill="#5b7cfa" fill-opacity=".35"/></g>
<g transform="translate(406 48) rotate(8 85 58)" opacity=".65"><rect width="177" height="117" rx="12" fill="url(#panel)" stroke="#64769d" stroke-opacity=".3"/><circle cx="22" cy="21" r="6" fill="#7490ff" fill-opacity=".4"/><path d="M37 21h71M17 45h133M17 59h105M17 73h122" stroke="#7490ff" stroke-opacity=".25" stroke-width="4" stroke-linecap="round"/><rect x="106" y="90" width="49" height="11" rx="5.5" fill="#5b7cfa" fill-opacity=".45"/></g>
<g transform="translate(275 42) rotate(-2 91 72)"><rect x="0" y="6" width="192" height="144" rx="13" fill="#0e111b" fill-opacity=".55"/><rect width="188" height="137" rx="13" fill="url(#panel)" stroke="#7490ff" stroke-opacity=".45"/><circle cx="22" cy="23" r="6" fill="#d4b18a"/><path d="M39 23h70" stroke="#7490ff" stroke-opacity=".4" stroke-width="4" stroke-linecap="round"/><rect x="57" y="42" width="112" height="22" rx="8" fill="#5b7cfa" fill-opacity=".4"/><rect x="17" y="74" width="124" height="31" rx="9" fill="#7490ff" fill-opacity=".12"/><path d="M28 85h82M28 94h60" stroke="#7490ff" stroke-opacity=".33" stroke-width="3" stroke-linecap="round"/><rect x="17" y="117" width="153" height="6" rx="3" fill="#7490ff" fill-opacity=".16"/></g>
<g fill="#7490ff"><circle cx="112" cy="80" r="1.5" opacity=".3"/><circle cx="610" cy="127" r="2" opacity=".24"/><circle cx="239" cy="31" r="1.5" opacity=".25"/><circle cx="531" cy="193" r="1.5" opacity=".25"/></g><path d="M0 175h740v57H0z" fill="url(#fade)"/>
</svg>
