<svg xmlns="http://www.w3.org/2000/svg" viewBox="0 0 740 232" fill="none">
  <defs>
    <linearGradient id="ground" x1="370" y1="0" x2="370" y2="232" gradientUnits="userSpaceOnUse">
      <stop stop-color="#141722"/>
      <stop offset="1" stop-color="#101219"/>
    </linearGradient>
    <radialGradient id="air" cx="0" cy="0" r="1" gradientTransform="translate(369 95) scale(270 145)" gradientUnits="userSpaceOnUse">
      <stop stop-color="#5b7cfa" stop-opacity=".13"/>
      <stop offset="1" stop-color="#5b7cfa" stop-opacity="0"/>
    </radialGradient>
    <linearGradient id="panel" x1="0" y1="0" x2="130" y2="105" gradientUnits="userSpaceOnUse">
      <stop stop-color="#303a58"/>
      <stop offset=".55" stop-color="#1d2130"/>
      <stop offset="1" stop-color="#171b28"/>
    </linearGradient>
    <linearGradient id="rim" x1="0" y1="0" x2="120" y2="113" gradientUnits="userSpaceOnUse">
      <stop stop-color="#7490ff" stop-opacity=".36"/>
      <stop offset="1" stop-color="#7490ff" stop-opacity=".03"/>
    </linearGradient>
    <linearGradient id="screen" x1="0" y1="0" x2="90" y2="80" gradientUnits="userSpaceOnUse">
      <stop stop-color="#5b7cfa" stop-opacity=".12"/>
      <stop offset="1" stop-color="#5b7cfa" stop-opacity=".015"/>
    </linearGradient>
    <linearGradient id="blue" x1="0" y1="0" x2="90" y2="0" gradientUnits="userSpaceOnUse">
      <stop stop-color="#7490ff" stop-opacity=".38"/>
      <stop offset="1" stop-color="#5b7cfa" stop-opacity=".04"/>
    </linearGradient>
    <radialGradient id="warm" cx="0" cy="0" r="1" gradientTransform="translate(371 86) scale(36)" gradientUnits="userSpaceOnUse">
      <stop stop-color="#d4b18a" stop-opacity=".13"/>
      <stop offset="1" stop-color="#d4b18a" stop-opacity="0"/>
    </radialGradient>
    <linearGradient id="amber" x1="365" y1="79" x2="378" y2="95" gradientUnits="userSpaceOnUse">
      <stop stop-color="#d4b18a"/>
      <stop offset="1" stop-color="#a4866b"/>
    </linearGradient>
    <linearGradient id="fade" x1="370" y1="166" x2="370" y2="232" gradientUnits="userSpaceOnUse">
      <stop stop-color="#101219" stop-opacity="0"/>
      <stop offset=".8" stop-color="#101219" stop-opacity=".94"/>
      <stop offset="1" stop-color="#101219"/>
    </linearGradient>
  </defs>
  <path fill="url(#ground)" d="M0 0h740v232H0z"/>
  <path fill="url(#air)" d="M0 0h740v232H0z"/>
  <path d="M54 176c94-21 168-19 242-5M443 171c91-19 155-20 243-2" stroke="#7490ff" stroke-opacity=".045"/>
  <ellipse cx="275" cy="181" rx="123" ry="14" fill="#090c14" opacity=".32"/>
  <ellipse cx="464" cy="175" rx="103" ry="12" fill="#090c14" opacity=".3"/>
  <!-- Quiet machines recede toward the edges. -->
  <g transform="translate(139 82) rotate(-9)" opacity=".32">
    <rect width="126" height="87" rx="10" fill="url(#panel)" stroke="url(#rim)"/>
    <rect x="9" y="10" width="108" height="67" rx="5" fill="#121724"/>
    <rect x="10" y="11" width="106" height="65" rx="4" fill="url(#screen)"/>
    <path d="M21 29h61M21 37h37" stroke="url(#blue)" stroke-width="3" stroke-linecap="round"/>
    <rect x="21" y="54" width="18" height="9" rx="3" fill="#5b7cfa" opacity=".15"/>
  </g>
  <g transform="translate(489 60) rotate(10)" opacity=".28">
    <rect width="105" height="81" rx="9" fill="url(#panel)" stroke="url(#rim)"/>
    <rect x="8" y="9" width="89" height="63" rx="4" fill="#131824"/>
    <rect x="8" y="9" width="89" height="63" rx="4" fill="url(#screen)"/>
    <path d="M20 27h50M20 35h29" stroke="url(#blue)" stroke-width="3" stroke-linecap="round"/>
  </g>
  <!-- Two distinct pools of lamplight, with breathing room between them. -->
  <g transform="translate(227 47) rotate(-5)">
    <rect x="-4" y="6" width="121" height="121" rx="12" fill="#0d111b" opacity=".55"/>
    <rect width="121" height="121" rx="11" fill="url(#panel)" stroke="url(#rim)"/>
    <rect x="9" y="11" width="103" height="98" rx="6" fill="#141a29"/>
    <rect x="9" y="11" width="103" height="98" rx="6" fill="url(#screen)"/>
    <path d="M22 29h72" stroke="url(#blue)" stroke-width="4" stroke-linecap="round" opacity=".7"/>
    <rect x="21" y="44" width="35" height="42" rx="4" fill="#5b7cfa" opacity=".08"/>
    <rect x="62" y="44" width="37" height="42" rx="4" fill="#7490ff" opacity=".04"/>
    <path d="M23 97h31" stroke="#7490ff" stroke-opacity=".18" stroke-width="2" stroke-linecap="round"/>
    <path d="M13 118h94" stroke="#5b7cfa" stroke-opacity=".08"/>
  </g>
  <g transform="translate(405 61) rotate(6)">
    <rect x="3" y="7" width="124" height="108" rx="11" fill="#0c1019" opacity=".6"/>
    <rect width="124" height="108" rx="11" fill="url(#panel)" stroke="url(#rim)"/>
    <rect x="9" y="10" width="106" height="85" rx="6" fill="#131926"/>
    <rect x="9" y="10" width="106" height="85" rx="6" fill="url(#screen)"/>
    <rect x="22" y="25" width="80" height="32" rx="4" fill="#5b7cfa" opacity=".07"/>
    <path d="M23 70h64M23 79h37" stroke="url(#blue)" stroke-width="3" stroke-linecap="round" opacity=".6"/>
    <path d="M13 105h98" stroke="#7490ff" stroke-opacity=".08"/>
  </g>
  <circle cx="371" cy="86" r="36" fill="url(#warm)"/>
  <rect x="365" y="79" width="12" height="15" rx="5" transform="rotate(12 371 86)" fill="url(#amber)"/>
  <path d="M366 115c-2 12-2 23 0 33" stroke="#7490ff" stroke-opacity=".12" stroke-linecap="round"/>
  <g fill="#7490ff">
    <circle cx="192" cy="49" r="1.4" opacity=".26"/>
    <circle cx="312" cy="25" r="1" opacity=".2"/>
    <circle cx="417" cy="34" r="1.6" opacity=".28"/>
    <circle cx="553" cy="151" r="1.3" opacity=".24"/>
    <circle cx="593" cy="107" r=".8" opacity=".22"/>
    <circle cx="183" cy="161" r="1" opacity=".18"/>
    <circle cx="386" cy="164" r="1.1" opacity=".2"/>
  </g>
  <g stroke="#7490ff" stroke-linecap="round">
    <path d="m208 111 4-1" stroke-opacity=".18"/>
    <path d="m464 36 5 1" stroke-opacity=".16"/>
    <path d="m569 53 3 1" stroke-opacity=".1"/>
  </g>
  <path fill="url(#fade)" d="M0 166h740v66H0z"/>
</svg>
