<svg xmlns="http://www.w3.org/2000/svg" width="256" height="256" viewBox="0 0 256 256">
  <defs>
    <linearGradient id="vibyra" x1="42" y1="56" x2="214" y2="196" gradientUnits="userSpaceOnUse">
      <stop stop-color="#7B2CFF"/>
      <stop offset="0.55" stop-color="#FF35C8"/>
      <stop offset="1" stop-color="#FFB84D"/>
    </linearGradient>
  </defs>
  <rect width="256" height="256" rx="48" fill="#050508"/>
  <rect x="22" y="22" width="212" height="212" rx="38" fill="#101014" stroke="#252033" stroke-width="4"/>
  <path d="M60 72h38l44 79 38-66c7-12 17-13 35-13l-55 95c-10 18-25 27-45 27s-35-9-45-27L60 72Z" fill="url(#vibyra)"/>
  <path d="M178 78h41l-18 31c-5 8-12 12-22 12h-36l18-31c4-8 10-12 17-12Z" fill="url(#vibyra)"/>
</svg>
